<svg xmlns="http://www.w3.org/2000/svg" viewBox="0 0 64 64" role="img" aria-label="Berkeley Natural Explorers Club emblem — oak leaf and waterfall">
  <rect width="64" height="64" rx="12" fill="#f7f1e3"/>
  <g fill="none" stroke="#445235" stroke-width="2.4" stroke-linecap="round" stroke-linejoin="round">
    <path d="M32 6 C 26 14, 20 14, 16 20 C 22 20, 24 24, 20 30 C 26 28, 28 32, 26 38 C 31 34, 33 38, 32 44"/>
    <path d="M32 6 C 38 14, 44 14, 48 20 C 42 20, 40 24, 44 30 C 38 28, 36 32, 38 38 C 33 34, 31 38, 32 44"/>
    <path d="M32 44 L 32 56"/>
  </g>
  <g fill="none" stroke="#8fa9b8" stroke-width="2" stroke-linecap="round">
    <path d="M23 50 q 4 4 0 8"/>
    <path d="M32 50 q 4 4 0 8"/>
    <path d="M41 50 q 4 4 0 8"/>
  </g>
</svg>
